<mxfile host="app.diagrams.net" modified="2020-11-03T17:48:27.086Z" agent="5.0 (X11; Linux x86_64) AppleWebKit/537.36 (KHTML, like Gecko) Chrome/86.0.4240.111 Safari/537.36" etag="01L_hE-_lzSt7Daf6TH7" version="13.8.9" type="github">
  <diagram id="UIMczG0Opilov-FZX68l" name="Page-1">
    <mxGraphModel dx="1102" dy="565" grid="1" gridSize="10" guides="1" tooltips="1" connect="1" arrows="1" fold="1" page="1" pageScale="1" pageWidth="827" pageHeight="1169" math="0" shadow="0">
      <root>
        <mxCell id="0" />
        <mxCell id="1" parent="0" />
        <mxCell id="hAgvnkGseDbieQIhcXdO-1" value="5" style="ellipse;whiteSpace=wrap;html=1;aspect=fixed;fillColor=#008a00;strokeColor=#005700;fontColor=#ffffff;" vertex="1" parent="1">
          <mxGeometry x="350" y="60" width="50" height="50" as="geometry" />
        </mxCell>
        <mxCell id="hAgvnkGseDbieQIhcXdO-2" value="3" style="ellipse;whiteSpace=wrap;html=1;aspect=fixed;fillColor=#fff2cc;strokeColor=#d6b656;" vertex="1" parent="1">
          <mxGeometry x="250" y="160" width="50" height="50" as="geometry" />
        </mxCell>
        <mxCell id="hAgvnkGseDbieQIhcXdO-3" value="7" style="ellipse;whiteSpace=wrap;html=1;aspect=fixed;fillColor=#0050ef;strokeColor=#001DBC;fontColor=#ffffff;" vertex="1" parent="1">
          <mxGeometry x="480" y="160" width="50" height="50" as="geometry" />
        </mxCell>
        <mxCell id="hAgvnkGseDbieQIhcXdO-6" value="" style="endArrow=classic;html=1;exitX=1;exitY=1;exitDx=0;exitDy=0;entryX=0.5;entryY=0;entryDx=0;entryDy=0;" edge="1" parent="1" source="hAgvnkGseDbieQIhcXdO-1" target="hAgvnkGseDbieQIhcXdO-3">
          <mxGeometry width="50" height="50" relative="1" as="geometry">
            <mxPoint x="390" y="350" as="sourcePoint" />
            <mxPoint x="440" y="300" as="targetPoint" />
          </mxGeometry>
        </mxCell>
        <mxCell id="hAgvnkGseDbieQIhcXdO-7" value="" style="endArrow=classic;html=1;exitX=0;exitY=1;exitDx=0;exitDy=0;entryX=1;entryY=0;entryDx=0;entryDy=0;" edge="1" parent="1" source="hAgvnkGseDbieQIhcXdO-1" target="hAgvnkGseDbieQIhcXdO-2">
          <mxGeometry width="50" height="50" relative="1" as="geometry">
            <mxPoint x="390" y="350" as="sourcePoint" />
            <mxPoint x="440" y="300" as="targetPoint" />
          </mxGeometry>
        </mxCell>
        <mxCell id="hAgvnkGseDbieQIhcXdO-8" value="2" style="ellipse;whiteSpace=wrap;html=1;aspect=fixed;fillColor=#dae8fc;strokeColor=#6c8ebf;gradientColor=#7ea6e0;" vertex="1" parent="1">
          <mxGeometry x="193" y="250" width="50" height="50" as="geometry" />
        </mxCell>
        <mxCell id="hAgvnkGseDbieQIhcXdO-9" value="4" style="ellipse;whiteSpace=wrap;html=1;aspect=fixed;fillColor=#e1d5e7;strokeColor=#9673a6;" vertex="1" parent="1">
          <mxGeometry x="307" y="250" width="50" height="50" as="geometry" />
        </mxCell>
        <mxCell id="hAgvnkGseDbieQIhcXdO-10" value="6" style="ellipse;whiteSpace=wrap;html=1;aspect=fixed;fillColor=#a20025;strokeColor=#6F0000;fontColor=#ffffff;" vertex="1" parent="1">
          <mxGeometry x="423" y="250" width="50" height="50" as="geometry" />
        </mxCell>
        <mxCell id="hAgvnkGseDbieQIhcXdO-11" value="8" style="ellipse;whiteSpace=wrap;html=1;aspect=fixed;fillColor=#e3c800;strokeColor=#B09500;fontColor=#ffffff;" vertex="1" parent="1">
          <mxGeometry x="537" y="250" width="50" height="50" as="geometry" />
        </mxCell>
        <mxCell id="hAgvnkGseDbieQIhcXdO-12" value="" style="endArrow=classic;html=1;exitX=0;exitY=1;exitDx=0;exitDy=0;entryX=0.5;entryY=0;entryDx=0;entryDy=0;" edge="1" parent="1" source="hAgvnkGseDbieQIhcXdO-2" target="hAgvnkGseDbieQIhcXdO-8">
          <mxGeometry width="50" height="50" relative="1" as="geometry">
            <mxPoint x="390" y="350" as="sourcePoint" />
            <mxPoint x="440" y="300" as="targetPoint" />
          </mxGeometry>
        </mxCell>
        <mxCell id="hAgvnkGseDbieQIhcXdO-13" value="" style="endArrow=classic;html=1;exitX=1;exitY=1;exitDx=0;exitDy=0;" edge="1" parent="1" source="hAgvnkGseDbieQIhcXdO-2" target="hAgvnkGseDbieQIhcXdO-9">
          <mxGeometry width="50" height="50" relative="1" as="geometry">
            <mxPoint x="267.3223304703363" y="212.67766952966372" as="sourcePoint" />
            <mxPoint x="230" y="270" as="targetPoint" />
          </mxGeometry>
        </mxCell>
        <mxCell id="hAgvnkGseDbieQIhcXdO-14" value="" style="endArrow=classic;html=1;entryX=0.54;entryY=0.2;entryDx=0;entryDy=0;entryPerimeter=0;exitX=-0.02;exitY=0.78;exitDx=0;exitDy=0;exitPerimeter=0;" edge="1" parent="1" source="hAgvnkGseDbieQIhcXdO-3">
          <mxGeometry width="50" height="50" relative="1" as="geometry">
            <mxPoint x="450" y="200" as="sourcePoint" />
            <mxPoint x="450" y="250" as="targetPoint" />
          </mxGeometry>
        </mxCell>
        <mxCell id="hAgvnkGseDbieQIhcXdO-15" value="" style="endArrow=classic;html=1;exitX=1;exitY=1;exitDx=0;exitDy=0;entryX=0.5;entryY=0;entryDx=0;entryDy=0;" edge="1" parent="1" source="hAgvnkGseDbieQIhcXdO-3" target="hAgvnkGseDbieQIhcXdO-11">
          <mxGeometry width="50" height="50" relative="1" as="geometry">
            <mxPoint x="607.3223304703363" y="192.67766952966372" as="sourcePoint" />
            <mxPoint x="570" y="250" as="targetPoint" />
          </mxGeometry>
        </mxCell>
        <mxCell id="hAgvnkGseDbieQIhcXdO-16" value="1" style="ellipse;whiteSpace=wrap;html=1;aspect=fixed;fillColor=#f8cecc;strokeColor=#b85450;gradientColor=#ea6b66;" vertex="1" parent="1">
          <mxGeometry x="143" y="350" width="50" height="50" as="geometry" />
        </mxCell>
        <mxCell id="hAgvnkGseDbieQIhcXdO-17" value="" style="endArrow=classic;html=1;exitX=0;exitY=1;exitDx=0;exitDy=0;entryX=0.5;entryY=0;entryDx=0;entryDy=0;" edge="1" parent="1" source="hAgvnkGseDbieQIhcXdO-8" target="hAgvnkGseDbieQIhcXdO-16">
          <mxGeometry width="50" height="50" relative="1" as="geometry">
            <mxPoint x="267.3223304703363" y="212.67766952966372" as="sourcePoint" />
            <mxPoint x="228" y="260" as="targetPoint" />
          </mxGeometry>
        </mxCell>
      </root>
    </mxGraphModel>
  </diagram>
</mxfile>
